<?xml version="1.0" encoding="utf-8"?>
<!-- Generator: Adobe Illustrator 21.1.0, SVG Export Plug-In . SVG Version: 6.00 Build 0)  -->
<svg version="1.1" id="Layer_1" xmlns="http://www.w3.org/2000/svg" xmlns:xlink="http://www.w3.org/1999/xlink" x="0px" y="0px"
	 viewBox="0 0 742.5 399" style="enable-background:new 0 0 742.5 399;" xml:space="preserve">
<style type="text/css">
	.st0{fill:url(#SVGID_1_);}
	.st1{fill:#001510;}
	.st2{fill:none;stroke:url(#SVGID_2_);stroke-width:2;stroke-miterlimit:10;}
	.st3{fill:none;stroke:url(#SVGID_3_);stroke-width:2;stroke-miterlimit:10;}
	.st4{fill:none;stroke:#000000;stroke-miterlimit:10;}
	.st5{fill:none;stroke:#000000;stroke-width:3;stroke-miterlimit:10;}
	.st6{fill:url(#SVGID_4_);}
	.st7{fill:none;stroke:#000000;stroke-width:4;stroke-miterlimit:10;}
	.st8{fill:url(#SVGID_5_);}
</style>
<linearGradient id="SVGID_1_" gradientUnits="userSpaceOnUse" x1="500.9183" y1="191.6724" x2="549.2569" y2="191.6724">
	<stop  offset="0" style="stop-color:#808080"/>
	<stop  offset="0.333" style="stop-color:#000000"/>
</linearGradient>
<polygon class="st0" points="540.7,165.8 534.2,198.8 526,165.8 518.8,165.8 510.7,198.8 504.1,165.8 500.9,165.8 500.9,192.4 
	504.6,211 501.1,211 502.4,217.5 510.6,217.5 512.2,211 515.7,211 522.4,184.1 529.1,211 525.6,211 527.2,217.5 535.5,217.5 
	536.8,211 540.3,211 549.3,165.8 "/>
<path class="st1" d="M64,203.2c0-2.2-0.4-4.2-1.3-6c-0.8-1.8-2.2-3.8-4.2-5.8c-0.8-0.8-3.1-2.8-6.8-5.9c-4-3.4-6.4-5.6-7.2-6.6
	c-0.6-0.8-0.9-1.6-0.9-2.5c0-0.9,0.4-1.6,1.2-2.3c0.8-0.7,1.9-1,3.2-1c2.7,0,5.3,1.8,7.8,5.3l7.3-6.4c-2.7-3.2-5.3-5.3-7.6-6.5
	s-4.8-1.8-7.4-1.8c-4,0-7.4,1.3-10.1,3.8c-2.7,2.6-4.1,5.6-4.1,9.2c0,2.5,0.8,5,2.5,7.5s5.3,6,10.9,10.6c3,2.4,4.9,4.2,5.7,5.4
	c0.9,1.2,1.3,2.3,1.3,3.5c0,1.3-0.6,2.4-1.7,3.4c-1.1,1-2.6,1.5-4.3,1.5c-3.2,0-6.1-2.3-8.6-6.9l-8.3,5c0.8,1.7,1.8,3.1,2.7,4.4
	h27.6C63.2,208.8,64,206.2,64,203.2z"/>
<linearGradient id="SVGID_2_" gradientUnits="userSpaceOnUse" x1="11.0318" y1="169.9761" x2="239.0108" y2="169.9761">
	<stop  offset="0" style="stop-color:#2B2728"/>
	<stop  offset="1" style="stop-color:#000000;stop-opacity:0"/>
</linearGradient>
<rect x="12" y="152" class="st2" width="226" height="35.9"/>
<linearGradient id="SVGID_3_" gradientUnits="userSpaceOnUse" x1="502.1337" y1="164.815" x2="730.1127" y2="164.815">
	<stop  offset="0" style="stop-color:#000000;stop-opacity:0"/>
	<stop  offset="1" style="stop-color:#2B2728"/>
</linearGradient>
<rect x="503.1" y="146.9" class="st3" width="226" height="35.9"/>
<rect x="72.7" y="164.8" class="st1" width="9.8" height="46.2"/>
<polygon class="st1" points="117.7,207.1 103.4,207.1 103.4,164.8 93.5,164.8 93.5,211 117.7,211 "/>
<polygon class="st1" points="167.7,164.8 157.6,164.8 144.4,201.6 131.4,164.8 121.3,164.8 137.6,211 151.1,211 "/>
<polygon class="st1" points="203.9,206.9 185.4,206.9 185.4,193.3 203.9,193.3 203.9,183.8 185.4,183.8 185.4,174.4 203.9,174.4 
	203.9,164.8 175.6,164.8 175.6,211 203.9,211 "/>
<path class="st1" d="M565,206.9h18.5l1.4,4.2h9l-15.3-45.2h-8.8L554.5,211h9L565,206.9z M574.3,179.5l6.1,17.8h-12.2L574.3,179.5z"
	/>
<polygon class="st1" points="640.2,165.8 631.3,165.8 619.7,202.6 608.2,165.8 599.4,165.8 613.4,211 625.8,211 "/>
<polygon class="st1" points="671.9,207.9 655.7,207.9 655.7,194.3 671.9,194.3 671.9,184.8 655.7,184.8 655.7,175.4 671.9,175.4 
	671.9,165.8 647.1,165.8 647.1,211 671.9,211 "/>
<path class="st1" d="M704.6,204.2c0-2.2-0.4-4.2-1.1-6c-0.7-1.8-2-3.8-3.7-5.8c-0.7-0.8-2.7-2.8-6-5.9c-3.5-3.4-5.6-5.6-6.3-6.6
	c-0.5-0.8-0.8-1.6-0.8-2.5c0-0.9,0.4-1.6,1.1-2.3c0.7-0.7,1.6-1,2.8-1c2.3,0,4.6,1.8,6.9,5.3l6.4-6.4c-2.4-3.2-4.6-5.3-6.7-6.5
	c-2.1-1.2-4.2-1.8-6.5-1.8c-3.5,0-6.5,1.3-8.9,3.8c-2.4,2.6-3.6,5.6-3.6,9.2c0,2.5,0.7,5,2.2,7.5s4.6,6,9.6,10.6
	c2.6,2.4,4.3,4.2,5,5.4c0.8,1.2,1.1,2.3,1.1,3.5c0,1.3-0.5,2.4-1.5,3.4s-2.3,1.5-3.7,1.5c-2.8,0-5.4-2.3-7.5-6.9l-7.3,5
	c0.6,1.2,1.1,2.4,1.8,3.4h25.4C704.2,209,704.6,206.7,704.6,204.2z"/>
<path class="st1" d="M34.5,215.1c2.7,1.8,5.9,2.7,9.6,2.7c4.7,0,8.5-1.4,11.5-4.1c0.9-0.8,1.6-1.7,2.2-2.7H30.2
	C31.5,212.7,32.9,214.1,34.5,215.1z"/>
<rect x="68.7" y="211" class="st1" width="9.8" height="5.5"/>
<rect x="89.5" y="211" class="st1" width="24.2" height="5.5"/>
<polygon class="st1" points="145.1,216.5 147.1,211 133.6,211 135.6,216.5 "/>
<rect x="171.6" y="211" class="st1" width="28.2" height="5.5"/>
<polygon class="st1" points="583.6,217.5 592.6,217.5 590.4,211 581.4,211 "/>
<polygon class="st1" points="557.8,217.5 560.1,211 551,211 548.8,217.5 "/>
<polygon class="st1" points="620.3,217.5 622.3,211 609.9,211 611.9,217.5 "/>
<rect x="643.6" y="211" class="st1" width="24.8" height="6.5"/>
<path class="st1" d="M678.7,216.1c2.4,1.8,5.2,2.7,8.5,2.7c4.1,0,7.5-1.4,10.1-4.1c1-1.1,1.8-2.3,2.5-3.7h-25.4
	C675.6,213.2,677.1,214.9,678.7,216.1z"/>
<polygon class="st4" points="239.9,211 241.4,213.8 241.4,211 "/>
<line class="st5" x1="460" y1="56.8" x2="481.7" y2="56.8"/>
<line class="st5" x1="481.7" y1="33.5" x2="500.9" y2="33.4"/>
<line class="st5" x1="500.9" y1="10" x2="460" y2="56.8"/>
<line class="st5" x1="500.9" y1="33.4" x2="481.7" y2="56.8"/>
<linearGradient id="SVGID_4_" gradientUnits="userSpaceOnUse" x1="208.0565" y1="190.6724" x2="239.7479" y2="190.6724">
	<stop  offset="0.666" style="stop-color:#000000"/>
	<stop  offset="0.995" style="stop-color:#808080"/>
</linearGradient>
<path class="st6" d="M239.7,189.1v-18.8c-1.4-1.8-3-3.1-5.1-4c-2.4-1-6.5-1.5-12.2-1.5h-10.4V211h-4v5.5h9.8V211h4v-16.4h0.9
	l8.7,16.4h-4l2.9,5.5h9.3v-2.7l-1.5-2.8h1.5v-4.7l-6.8-12.8C235.9,192.5,238.1,191,239.7,189.1z M231.5,183.8
	c-1.2,0.8-3.3,1.2-6.5,1.2h-3.1v-10.6h2.7c2.6,0,4.4,0.2,5.4,0.5c1,0.4,1.8,1,2.3,1.8c0.6,0.8,0.9,1.8,0.9,2.9
	C233.2,181.6,232.6,183,231.5,183.8z"/>
<polyline class="st7" points="460,387 460,56.8 280,56.8 280,387 "/>
<line class="st5" x1="280" y1="56.8" x2="261.4" y2="56.8"/>
<polyline class="st7" points="261.4,364.3 261.4,33.5 481.7,33.5 481.7,364.3 "/>
<polyline class="st7" points="500.9,339.2 500.9,10 240.5,10 240.5,339.2 "/>
<line class="st5" x1="240.5" y1="10" x2="280" y2="56.8"/>
<line class="st5" x1="261.4" y1="33.5" x2="240.5" y2="33.5"/>
<line class="st5" x1="240.5" y1="33.5" x2="261.4" y2="56.8"/>
<linearGradient id="SVGID_5_" gradientUnits="userSpaceOnUse" x1="221.9003" y1="179.736" x2="233.2299" y2="179.736">
	<stop  offset="0" style="stop-color:#F2F2F2;stop-opacity:0"/>
	<stop  offset="1" style="stop-color:#F2F2F2;stop-opacity:0.4"/>
</linearGradient>
<path class="st8" d="M221.9,174.4V185h4c0,0,7.6,0.8,7.3-5.3"/>
</svg>
