<?xml version="1.0" encoding="utf-8"?>
<!-- Generator: Adobe Illustrator 21.1.0, SVG Export Plug-In . SVG Version: 6.00 Build 0)  -->
<svg version="1.1" id="Layer_1" xmlns="http://www.w3.org/2000/svg" xmlns:xlink="http://www.w3.org/1999/xlink" x="0px" y="0px"
	 viewBox="0 0 741 408" style="enable-background:new 0 0 741 408;" xml:space="preserve">
<style type="text/css">
	.st0{fill:#FFFFFF;}
	.st1{fill:none;stroke:url(#SVGID_1_);stroke-width:2;stroke-miterlimit:10;}
	.st2{fill:none;stroke:url(#SVGID_2_);stroke-width:2;stroke-miterlimit:10;}
	.st3{fill:none;}
	.st4{fill:url(#SVGID_3_);}
	.st5{fill:url(#SVGID_4_);}
	.st6{fill:none;stroke:#FFFFFF;stroke-width:4;stroke-miterlimit:10;}
	.st7{fill:none;stroke:#FFFFFF;stroke-width:3;stroke-miterlimit:10;}
</style>
<path class="st0" d="M62.4,209.5c0-2.2-0.4-4.2-1.3-6c-0.8-1.8-2.2-3.8-4.2-5.8c-0.8-0.8-3.1-2.8-6.8-5.9c-4-3.4-6.4-5.6-7.2-6.6
	c-0.6-0.8-0.9-1.6-0.9-2.5c0-0.9,0.4-1.6,1.2-2.3c0.8-0.7,1.9-1,3.2-1c2.7,0,5.3,1.8,7.8,5.3l7.3-6.4c-2.7-3.2-5.3-5.3-7.6-6.5
	s-4.8-1.8-7.4-1.8c-4,0-7.4,1.3-10.1,3.8c-2.7,2.6-4.1,5.6-4.1,9.2c0,2.5,0.8,5,2.5,7.5s5.3,6,10.9,10.6c3,2.4,4.9,4.2,5.7,5.4
	c0.9,1.2,1.3,2.3,1.3,3.5c0,1.3-0.6,2.4-1.7,3.4c-1.1,1-2.6,1.5-4.3,1.5c-3.2,0-6.1-2.3-8.6-6.9l-8.3,5c0.8,1.7,1.8,3.1,2.7,4.4
	h27.6C61.6,215.1,62.4,212.5,62.4,209.5z"/>
<linearGradient id="SVGID_1_" gradientUnits="userSpaceOnUse" x1="9.391" y1="176.345" x2="237.37" y2="176.345">
	<stop  offset="0" style="stop-color:#FFFFFF"/>
	<stop  offset="1" style="stop-color:#FFFFFF;stop-opacity:0"/>
</linearGradient>
<rect x="10.4" y="158.4" class="st1" width="226" height="35.9"/>
<linearGradient id="SVGID_2_" gradientUnits="userSpaceOnUse" x1="500.4929" y1="171.1838" x2="728.4719" y2="171.1838">
	<stop  offset="0" style="stop-color:#FFFFFF;stop-opacity:0"/>
	<stop  offset="1" style="stop-color:#FFFFFF"/>
</linearGradient>
<rect x="501.5" y="153.2" class="st2" width="226" height="35.9"/>
<polygon class="st3" points="563.4,213.2 561.9,217.4 583.3,217.4 581.9,213.2 "/>
<polygon class="st3" points="514.1,217.4 527.5,217.4 520.7,190.5 "/>
<polygon class="st3" points="221.9,201 221.9,217.4 231.5,217.4 222.8,201 "/>
<path class="st3" d="M231.5,190.2c1.2-0.8,1.8-2.2,1.8-4.1c0-1.1-0.3-2.1-0.9-2.9c-0.6-0.8-1.4-1.4-2.3-1.8c-1-0.4-2.8-0.5-5.4-0.5
	h-2.7v10.6h3.1C228.1,191.4,230.3,191,231.5,190.2z"/>
<polygon class="st3" points="582.8,185.9 575.9,203.6 589.7,203.6 "/>
<rect x="71" y="171.2" class="st0" width="9.8" height="46.2"/>
<polygon class="st0" points="116.1,213.5 101.7,213.5 101.7,171.2 91.9,171.2 91.9,217.4 116.1,217.4 "/>
<polygon class="st0" points="166.1,171.2 156,171.2 142.8,207.9 129.8,171.2 119.6,171.2 136,217.4 149.4,217.4 "/>
<polygon class="st0" points="202.2,213.2 183.8,213.2 183.8,199.6 202.2,199.6 202.2,190.2 183.8,190.2 183.8,180.8 202.2,180.8 
	202.2,171.2 174,171.2 174,217.4 202.2,217.4 "/>
<path class="st0" d="M563.4,213.2h18.5l1.4,4.2h9L577,172.2h-8.8l-15.3,45.2h9L563.4,213.2z M572.7,185.9l6.1,17.8h-12.2
	L572.7,185.9z"/>
<polygon class="st0" points="638.5,172.2 629.6,172.2 618,208.9 606.6,172.2 597.7,172.2 611.8,217.4 624.2,217.4 "/>
<polygon class="st0" points="670.3,214.2 654.1,214.2 654.1,200.6 670.3,200.6 670.3,191.2 654.1,191.2 654.1,181.8 670.3,181.8 
	670.3,172.2 645.5,172.2 645.5,217.4 670.3,217.4 "/>
<path class="st0" d="M703,210.5c0-2.2-0.4-4.2-1.1-6c-0.7-1.8-2-3.8-3.7-5.8c-0.7-0.8-2.7-2.8-6-5.9c-3.5-3.4-5.6-5.6-6.3-6.6
	c-0.5-0.8-0.8-1.6-0.8-2.5c0-0.9,0.4-1.6,1.1-2.3c0.7-0.7,1.6-1,2.8-1c2.3,0,4.6,1.8,6.9,5.3l6.4-6.4c-2.4-3.2-4.6-5.3-6.7-6.5
	c-2.1-1.2-4.2-1.8-6.5-1.8c-3.5,0-6.5,1.3-8.9,3.8c-2.4,2.6-3.6,5.6-3.6,9.2c0,2.5,0.7,5,2.2,7.5c1.4,2.5,4.6,6,9.6,10.6
	c2.6,2.4,4.3,4.2,5,5.4c0.8,1.2,1.1,2.3,1.1,3.5c0,1.3-0.5,2.4-1.5,3.4c-1,1-2.3,1.5-3.7,1.5c-2.8,0-5.4-2.3-7.5-6.9l-7.3,5
	c0.6,1.2,1.1,2.4,1.8,3.4h25.4C702.5,215.4,703,213.1,703,210.5z"/>
<path class="st0" d="M32.9,221.5c2.7,1.8,5.9,2.7,9.6,2.7c4.7,0,8.5-1.4,11.5-4.1c0.9-0.8,1.6-1.7,2.2-2.7H28.6
	C29.9,219.1,31.3,220.5,32.9,221.5z"/>
<rect x="67" y="217.4" class="st0" width="9.8" height="5.5"/>
<rect x="87.9" y="217.4" class="st0" width="24.2" height="5.5"/>
<polygon class="st0" points="143.4,222.9 145.4,217.4 132,217.4 134,222.9 "/>
<rect x="170" y="217.4" class="st0" width="28.2" height="5.5"/>
<polygon class="st0" points="582,223.9 591,223.9 588.8,217.4 579.8,217.4 "/>
<polygon class="st0" points="556.2,223.9 558.4,217.4 549.4,217.4 547.2,223.9 "/>
<polygon class="st0" points="618.6,223.9 620.7,217.4 608.3,217.4 610.3,223.9 "/>
<rect x="642" y="217.4" class="st0" width="24.8" height="6.5"/>
<path class="st0" d="M677.1,222.5c2.4,1.8,5.2,2.7,8.5,2.7c4.1,0,7.5-1.4,10.1-4.1c1-1.1,1.8-2.3,2.5-3.7h-25.4
	C674,219.6,675.5,221.3,677.1,222.5z"/>
<path class="st3" d="M233,199.9l6.8,12.8v-17.2C238.2,197.4,235.9,198.9,233,199.9z"/>
<path class="st3" d="M230,181.3c-1-0.4-2.8-0.5-5.4-0.5h-2.7v10.6h3.1c3.1,0,5.3-0.4,6.5-1.2c1.2-0.8,1.8-2.2,1.8-4.1
	c0-1.1-0.3-2.1-0.9-2.9C231.8,182.3,231,181.7,230,181.3z"/>
<polygon class="st3" points="238.3,217.4 239.8,220.2 239.8,217.4 "/>
<linearGradient id="SVGID_3_" gradientUnits="userSpaceOnUse" x1="208.0824" y1="197.0413" x2="239.7738" y2="197.0413">
	<stop  offset="0.666" style="stop-color:#FFFFFF"/>
	<stop  offset="1" style="stop-color:#000000"/>
</linearGradient>
<path class="st4" d="M239.8,195.4v-18.8c-1.4-1.8-3-3.1-5.1-4c-2.4-1-6.5-1.5-12.2-1.5h-10.4v46.2h-4v5.5h9.8v-5.5h4V201h0.9
	l8.7,16.4h-4l2.9,5.5h9.3v-2.7l-1.5-2.8h1.5v-4.7l-6.8-12.8C235.9,198.9,238.2,197.4,239.8,195.4z M231.5,190.2
	c-1.2,0.8-3.3,1.2-6.5,1.2h-3.1v-10.6h2.7c2.6,0,4.4,0.2,5.4,0.5c1,0.4,1.8,1,2.3,1.8c0.6,0.8,0.9,1.8,0.9,2.9
	C233.2,188,232.7,189.3,231.5,190.2z"/>
<linearGradient id="SVGID_4_" gradientUnits="userSpaceOnUse" x1="499.2775" y1="198.0413" x2="547.6161" y2="198.0413">
	<stop  offset="0" style="stop-color:#2C2829"/>
	<stop  offset="0.2426" style="stop-color:#FFFFFF"/>
</linearGradient>
<polygon class="st5" points="539.1,172.2 532.6,205.2 524.4,172.2 517.2,172.2 509.1,205.2 502.5,172.2 499.3,172.2 499.3,198.7 
	503,217.4 499.5,217.4 500.8,223.9 509,223.9 510.6,217.4 514.1,217.4 520.7,190.5 527.5,217.4 523.9,217.4 525.6,223.9 
	533.9,223.9 535.2,217.4 538.7,217.4 547.6,172.2 "/>
<polyline class="st6" points="458.4,393.4 458.4,63.2 278.4,63.2 278.4,393.4 "/>
<line class="st7" x1="278.4" y1="63.2" x2="259.8" y2="63.2"/>
<line class="st7" x1="458.4" y1="63.2" x2="480" y2="63.2"/>
<polyline class="st6" points="259.8,370.7 259.8,39.9 480,39.9 480,370.7 "/>
<polyline class="st6" points="499.3,345.5 499.3,16.4 238.9,16.4 238.9,345.5 "/>
<line class="st7" x1="238.9" y1="16.4" x2="278.4" y2="63.2"/>
<line class="st7" x1="259.8" y1="39.9" x2="238.9" y2="39.9"/>
<line class="st7" x1="480" y1="39.9" x2="499.3" y2="39.8"/>
<line class="st7" x1="499.3" y1="16.4" x2="458.4" y2="63.2"/>
<line class="st7" x1="499.3" y1="39.8" x2="480" y2="63.2"/>
<line class="st7" x1="238.9" y1="39.9" x2="259.8" y2="63.2"/>
</svg>
